<svg xmlns="http://www.w3.org/2000/svg" viewBox="0 0 108 108" width="360" height="360"><defs><clipPath id="c"><circle cx="54" cy="54" r="54"/></clipPath></defs><g clip-path="url(#c)"><rect width="108" height="108" fill="#16211A"/><g transform="translate(54 54) scale(1.12) translate(-54 -54)"><path d="M36,35 a3 3 0 0 1 3-3 H62 L72,42 V73 a3 3 0 0 1 -3 3 H39 a3 3 0 0 1 -3 -3 Z" fill="#ECEFEC"/>
<path d="M62,32 V39 a3 3 0 0 0 3 3 H72 Z" fill="#B9C4BB"/>
<rect x="42" y="45" width="20" height="2.6" rx="1.3" fill="#9AA59C"/><rect x="42" y="51" width="15" height="2.6" rx="1.3" fill="#9AA59C"/>
<path d="M45,70 C45,60 53,57 64,57 C64,67 57,71 45,70 Z" fill="#66BB6A"/>
<path d="M46.5,69 L58,61" stroke="#1F3321" stroke-width="1.4" stroke-linecap="round"/></g></g></svg>